<svg xmlns="http://www.w3.org/2000/svg" xmlns:xlink="http://www.w3.org/1999/xlink" id="Layer_1" x="0px" y="0px" viewBox="0 0 2499.72 2500.01" style="enable-background:new 0 0 2499.72 2500.01;" xml:space="preserve">
<style type="text/css">
	.st0{clip-path:url(#SVGID_4_);fill:#F7931A;}
	.st1{clip-path:url(#SVGID_4_);fill:#FFFFFF;}
</style>
<g>
	<defs>
		<rect id="SVGID_3_" y="0" width="2499.72" height="2500.01"></rect>
	</defs>
	<clipPath id="SVGID_4_">
		<use xlink:href="#SVGID_3_" style="overflow:visible;"></use>
	</clipPath>
	<path class="st0" d="M2462.35,1552.4c-166.95,669.65-845.23,1077.15-1514.96,910.2C277.97,2295.65-129.57,1617.36,37.42,947.76   C204.3,278.03,882.54-129.55,1552.07,37.4c669.69,166.95,1077.19,845.31,910.23,1515H2462.35z"></path>
	<path class="st1" d="M1801.02,1071.93c24.84-166.33-101.8-255.74-274.96-315.39l56.17-225.31l-137.19-34.18l-54.69,219.38   c-36.02-8.98-73.05-17.46-109.84-25.86l55.08-220.82l-137.07-34.18l-56.21,225.23c-29.84-6.8-59.14-13.52-87.58-20.59l0.16-0.7   l-189.14-47.23l-36.48,146.48c0,0,101.76,23.32,99.61,24.77c55.55,13.87,65.62,50.63,63.91,79.77l-63.98,256.68   c3.83,0.98,8.79,2.38,14.26,4.57l-14.45-3.59l-89.73,359.57c-6.8,16.88-24.02,42.19-62.85,32.58c1.37,1.99-99.69-24.88-99.69-24.88   l-68.09,157.03l178.52,44.49c33.2,8.32,65.74,17.03,97.73,25.23l-56.76,227.93l136.99,34.18l56.25-225.47   c37.38,10.16,73.71,19.53,109.26,28.36l-56.02,224.41l137.15,34.18l56.76-227.46c233.87,44.26,409.77,26.41,483.71-185.08   c59.65-170.31-2.93-268.55-125.98-332.66c89.61-20.74,157.11-79.69,175.12-201.44H1801.02z M1487.62,1511.35   c-42.42,170.31-329.14,78.28-422.15,55.16l75.31-301.91c92.97,23.2,391.05,69.14,346.87,246.76H1487.62z M1530,1069.47   c-38.67,154.92-277.34,76.21-354.81,56.91l68.28-273.83C1320.94,871.86,1570.32,907.87,1530,1069.47"></path>
</g>
</svg>