<svg xmlns="http://www.w3.org/2000/svg" xmlns:xlink="http://www.w3.org/1999/xlink" id="Layer_1" x="0px" y="0px" viewBox="0 0 357.33 414.39" style="enable-background:new 0 0 357.33 414.39;" xml:space="preserve">
<style type="text/css">
	.st0d{clip-path:url(#SVGID_2d_);fill:#C5F7FC;}
</style>
<g>
	<defs>
		<rect id="SVGID_1d_" width="357.33" height="414.39"></rect>
	</defs>
	<clipPath id="SVGID_2d_">
		<use xlink:href="#SVGID_1d_" style="overflow:visible;"></use>
	</clipPath>
	<path class="st0d" d="M240.1,47.88V26.74C240.09,11.97,228.11,0,213.34,0h-62.4c-14.77,0-26.76,11.97-26.77,26.74v21.71   c0,2.41,2.23,4.11,4.67,3.54c17.65-5.1,35.93-7.67,54.3-7.65c17.8,0,35.42,2.41,52.45,7.09C237.87,51.99,240.1,50.32,240.1,47.88    M69.1,75.55L58.44,64.89C48,54.44,31.06,54.43,20.61,64.87c0,0.01-0.01,0.01-0.01,0.01L7.86,77.6   c-10.43,10.37-10.49,27.24-0.12,37.67c0.04,0.04,0.08,0.08,0.12,0.11l10.48,10.48c1.69,1.67,4.13,1.28,5.62-0.39   c6.18-8.49,13.01-16.5,20.42-23.94c7.47-7.5,15.55-14.37,24.15-20.55C70.4,79.86,70.59,77.24,69.1,75.55 M182.97,142.67v91.45   c0,2.62,2.82,4.49,5.24,3.18l81.3-42.08c1.85-0.92,2.41-3.18,1.49-5.03c-16.85-29.57-48.14-49.76-84.28-51.07   C184.84,139.12,182.97,140.61,182.97,142.67 M182.97,362.97c-67.79,0-122.86-55-122.86-122.68c0-67.69,55.07-122.66,122.86-122.66   c67.82,0,122.87,54.97,122.87,122.66C305.84,307.97,250.97,362.97,182.97,362.97 M182.97,66.02C86.69,66.02,8.6,144.01,8.6,240.28   c0,96.3,78.09,174.11,174.37,174.11c96.28,0,174.37-77.99,174.37-174.29S279.42,66.02,182.97,66.02"></path>
</g>
</svg>