<svg xmlns="http://www.w3.org/2000/svg" xmlns:xlink="http://www.w3.org/1999/xlink" id="Layer_1" x="0px" y="0px" viewBox="0 0 330.04 484.39" style="enable-background:new 0 0 330.04 484.39;" xml:space="preserve">
<style type="text/css">
	.st0{clip-path:url(#SVGID_2_);fill:#3377FF;}
</style>
<g>
	<defs>
		<rect id="SVGID_1_" width="330.04" height="484.39"></rect>
	</defs>
	<clipPath id="SVGID_2_">
		<use xlink:href="#SVGID_1_" style="overflow:visible;"></use>
	</clipPath>
	<path class="st0" d="M319.82,135.05c-3.21,0-6-2.21-6.73-5.33c-1.55-6.61-3.61-13.09-6.17-19.37c-1.3-3.6,0.57-7.56,4.17-8.86   c3.6-1.3,7.56,0.57,8.86,4.17c2.73,6.79,4.94,13.78,6.61,20.91c0.86,3.71-1.44,7.43-5.15,8.3   C320.89,134.99,320.36,135.05,319.82,135.05"></path>
	<path class="st0" d="M240.61,362.06H90.74c-3.82,0-6.92-3.1-6.92-6.92v-8.93c0-28.99-11.28-40.03-33.75-62.02   c-65.52-63.78-66.92-168.6-3.14-234.12c48.95-50.28,124.28-64.24,188-34.84c3.42,1.71,4.8,5.87,3.09,9.29   c-1.64,3.27-5.54,4.7-8.9,3.27C153-7.28,62.87,25.99,27.8,102.11C0.96,160.36,13.64,229.19,59.48,274.06   c23.11,22.62,38.18,37.36,38.18,72.18v2.01h136.03v-2.01c0-34.3,14.65-48.83,36.81-70.83l2.18-2.16   c24.16-24.1,39.52-55.63,43.59-89.51c0.51-3.79,3.99-6.45,7.78-5.94c3.7,0.5,6.34,3.84,5.96,7.56   c-4.45,36.98-21.2,71.39-47.57,97.69l-2.19,2.17c-21.1,20.94-32.72,32.48-32.72,61.01v8.93   C247.52,358.97,244.42,362.06,240.61,362.06"></path>
	<path class="st0" d="M288.91,72.71c-2.12,0-4.12-0.96-5.43-2.62c-4.04-5.05-8.43-9.8-13.15-14.21c-2.78-2.62-2.9-7.01-0.28-9.79   c2.63-2.78,7.01-2.9,9.79-0.28c5.21,4.88,10.07,10.12,14.53,15.68c2.37,2.99,1.87,7.35-1.13,9.72c-1.22,0.97-2.73,1.49-4.29,1.5   H288.91z"></path>
	<path class="st0" d="M265.21,412.77H66.14c-6.05-0.01-10.95-4.91-10.96-10.96v-42.61c0.01-6.05,4.91-10.95,10.96-10.96h199.07   c6.05,0.01,10.95,4.91,10.96,10.96v42.61C276.16,407.86,271.26,412.76,265.21,412.77 M69.02,398.93h193.31v-36.85H69.02V398.93z"></path>
	<path class="st0" d="M205.18,484.39h-79.01c-12.85-0.02-23.27-10.43-23.29-23.28v-55.26c0-3.82,3.1-6.92,6.92-6.92h111.75   c3.82,0,6.92,3.1,6.92,6.92v55.26C228.45,473.96,218.03,484.38,205.18,484.39 M116.72,412.77v48.34c0.01,5.22,4.24,9.44,9.45,9.44   h79.01c5.22,0,9.44-4.23,9.45-9.44v-48.34H116.72z"></path>
	<path class="st0" d="M257.52,448.56h-35.98c-3.82,0-6.92-3.1-6.92-6.92c0-3.82,3.1-6.92,6.92-6.92h35.98c3.82,0,6.92,3.1,6.92,6.92   C264.44,445.46,261.34,448.56,257.52,448.56"></path>
	<path class="st0" d="M109.79,448.56H73.81c-3.82,0-6.92-3.1-6.92-6.92c0-3.82,3.1-6.92,6.92-6.92h35.98c3.82,0,6.92,3.1,6.92,6.92   C116.71,445.46,113.61,448.56,109.79,448.56"></path>
	<path class="st0" d="M165.67,212.39c-3.82,0-6.92-3.1-6.92-6.92v-3.38c0-19.19,11.38-27.97,25.12-36.67   c11.99-7.59,18.04-21.8,15.22-35.7c-3.83-18.43-21.88-30.27-40.31-26.44c-15.81,3.28-27.15,17.21-27.15,33.36   c0,3.82-3.1,6.92-6.92,6.92c-3.82,0-6.92-3.1-6.92-6.92c-0.04-26.46,21.38-47.95,47.85-47.99c26.47-0.04,47.95,21.38,47.99,47.85   c0.03,16.48-8.42,31.82-22.36,40.61c-12.71,8.05-18.68,13.15-18.68,24.99v3.38C172.59,209.3,169.49,212.39,165.67,212.39"></path>
	<path class="st0" d="M165.67,249.15c-3.82,0-6.92-3.1-6.92-6.92v-6.92c0-3.82,3.1-6.92,6.92-6.92c3.82,0,6.92,3.1,6.92,6.92v6.92   C172.59,246.05,169.49,249.15,165.67,249.15"></path>
</g>
</svg>