<svg xmlns="http://www.w3.org/2000/svg" xmlns:xlink="http://www.w3.org/1999/xlink" id="Layer_1" x="0px" y="0px" viewBox="0 0 18.99 22" style="enable-background:new 0 0 18.99 22;" xml:space="preserve">
<style type="text/css">
	.st02{clip-path:url(#SVGID_6_);fill:#84ADFF;}
	.st102{clip-path:url(#SVGID_6_);fill:#3377FF;}
</style>
<g>
	<defs>
		<rect id="SVGID_5_" y="0" width="18.99" height="22"></rect>
	</defs>
	<clipPath id="SVGID_6_">
		<use xlink:href="#SVGID_5_" style="overflow:visible;"></use>
	</clipPath>
	<path class="st02" d="M6.36,18.94c-0.08,0.48-0.5,0.84-0.99,0.84H1.54C0.69,19.79,0,19.1,0,18.25c0-0.09,0.01-0.17,0.02-0.25   L2.61,1.59C2.76,0.68,3.55,0,4.47,0h6.21c2.56,0,4.41,0.62,5.49,1.84c1.05,1.21,1.45,2.84,1.08,4.4c-0.02,0.14-0.04,0.27-0.08,0.42   c-0.82,4.22-3.66,6.46-8.19,6.46H7.28L6.36,18.94z M2,18.31L2,18.31L2,18.31z M4.59,1.9L4.59,1.9L4.59,1.9z"></path>
	<path class="st102" d="M17.91,6.1c-0.17-0.19-0.35-0.36-0.55-0.51c-0.02,0.22-0.06,0.43-0.11,0.64c-0.02,0.13-0.04,0.27-0.08,0.42   c-0.82,4.22-3.65,6.46-8.18,6.46H7.28l-0.93,5.83c-0.08,0.49-0.49,0.84-0.99,0.84H4.2L4.12,20.3c-0.01,0.07-0.02,0.15-0.02,0.23   C4.1,21.34,4.76,22,5.57,22H8.8c0.86,0.01,1.61-0.62,1.75-1.47l0.64-4.03l0.01-0.06h0.3c4.03,0,6.55-1.99,7.28-5.76   C19.24,9.1,18.92,7.4,17.91,6.1"></path>
</g>
</svg>