<svg xmlns="http://www.w3.org/2000/svg" xmlns:xlink="http://www.w3.org/1999/xlink" id="Layer_1" x="0px" y="0px" viewBox="0 0 481 482.67" style="enable-background:new 0 0 481 482.67;" xml:space="preserve">
<style type="text/css">
	.st0z{clip-path:url(#SVGID_2z_);fill:#3377FF;}
</style>
<g>
	<defs>
		<rect id="SVGID_1z_" width="481" height="482.67"></rect>
	</defs>
	<clipPath id="SVGID_2z_">
		<use xlink:href="#SVGID_1z_" style="overflow:visible;"></use>
	</clipPath>
	<path class="st0z" d="M326.84,122.19c-1.41,0-2.78-0.43-3.94-1.23c-16.81-11.72-35.95-19.67-56.11-23.3   c-3.52-0.63-5.98-3.84-5.67-7.4c0.06-0.64,0.12-1.33,0.12-1.97V6.92c0-1.97,0.84-3.85,2.32-5.16c1.46-1.33,3.43-1.95,5.4-1.71   c44.37,5.13,86.43,22.52,121.48,50.22c3.01,2.36,3.53,6.71,1.17,9.71c-0.17,0.22-0.36,0.43-0.56,0.63l-57.56,57.64   c-0.42,0.4-0.8,0.84-1.16,1.29C331,121.22,328.98,122.2,326.84,122.19 M275.09,85.2c18.03,3.96,35.21,11.09,50.74,21.08   l49.82-49.88c-29.65-21.82-64.16-36.09-100.56-41.58V85.2z"></path>
	<path class="st0z" d="M90.85,219.89h-0.6c-0.64-0.08-1.33-0.14-1.97-0.14H6.92c-3.82,0-6.92-3.1-6.92-6.92   c0-0.27,0.02-0.54,0.05-0.8C12.74,100.64,100.63,12.74,212.02,0.05c3.8-0.44,7.23,2.27,7.68,6.07c0.03,0.27,0.05,0.53,0.05,0.8   v81.37c0,0.64,0.06,1.33,0.12,1.97c0.3,3.56-2.15,6.76-5.66,7.4c-59.23,10.99-105.56,57.33-116.55,116.56   C97.05,217.5,94.19,219.89,90.85,219.89 M14.83,205.91h70.39c13.53-60.17,60.52-107.17,120.69-120.69V14.83   C107.09,29.51,29.5,107.1,14.83,205.91"></path>
	<path class="st0z" d="M175.25,473.54h-0.07c-0.67,0-1.33-0.09-1.97-0.28c-7.1-2.08-13.68-4.33-20.12-6.82   c-3.61-1.26-5.51-5.21-4.25-8.81c0.96-2.76,3.56-4.61,6.48-4.64c0.88,0,1.75,0.16,2.57,0.46c6.1,2.37,12.34,4.48,19.08,6.48   c3.69,0.99,5.88,4.78,4.9,8.47C181.07,471.41,178.36,473.51,175.25,473.54"></path>
	<path class="st0z" d="M240.5,482.67c-5.4,0-10.29-0.17-14.96-0.5c-3.81-0.27-6.68-3.59-6.4-7.4c0.27-3.81,3.59-6.68,7.4-6.4   c4.34,0.31,8.9,0.46,13.96,0.46c48.64,0.19,96.04-15.32,135.16-44.23l-49.82-49.89c-14.89,9.57-31.31,16.54-48.54,20.59l-0.44,0.08   c-19.47,4.58-39.63,5.46-59.42,2.59c-7.44-1.08-14.8-2.7-22.01-4.84c-16.36-4.79-31.82-12.25-45.75-22.09   c-5.85-4.02-11.4-8.46-16.6-13.28c-24.11-21.95-40.84-50.83-47.88-82.67H14.82c6.22,41.14,23.66,79.78,50.4,111.66   c2.49,2.9,2.16,7.27-0.74,9.76c-2.9,2.49-7.26,2.16-9.76-0.73c-0.04-0.05-0.08-0.1-0.12-0.15C24.43,359.66,5.46,315.62,0.05,268.98   c-0.44-3.8,2.28-7.23,6.08-7.67c0.26-0.03,0.53-0.05,0.79-0.05h81.37c0.64,0,1.33-0.06,1.97-0.12c3.56-0.3,6.76,2.15,7.4,5.67   c5.66,31.1,21.39,59.47,44.77,80.74c4.75,4.4,9.81,8.45,15.15,12.12c18.42,12.91,39.6,21.34,61.85,24.6   c18.2,2.65,36.73,1.82,54.62-2.44c0.16-0.04,0.32-0.07,0.48-0.09c17.34-4.14,33.76-11.5,48.39-21.7c3.02-2.09,7.15-1.46,9.4,1.44   c0.36,0.45,0.74,0.89,1.16,1.29l57.57,57.61c2.7,2.7,2.7,7.08,0,9.79c-0.19,0.19-0.39,0.37-0.61,0.54   C347.8,464.56,294.92,482.88,240.5,482.67"></path>
	<path class="st0z" d="M112.29,444.61c-1.31,0-2.59-0.37-3.7-1.07c-5.9-3.76-11.59-7.83-17.06-12.19c-3.05-2.31-3.64-6.65-1.34-9.69   c2.31-3.05,6.65-3.65,9.69-1.34c0.08,0.06,0.16,0.12,0.24,0.19c5.1,4.06,10.41,7.85,15.91,11.34c3.23,2.04,4.19,6.32,2.15,9.55   c-1.27,2.01-3.48,3.23-5.86,3.22H112.29z"></path>
	<path class="st0z" d="M425.3,393.07c-1.84,0.01-3.61-0.72-4.91-2.03l-57.63-57.56c-0.4-0.42-0.84-0.8-1.29-1.16   c-2.9-2.26-3.54-6.39-1.44-9.41c11.73-16.8,19.68-35.95,23.32-56.11c0.63-3.52,3.84-5.98,7.4-5.67c0.64,0.06,1.33,0.12,1.97,0.12   h81.37c3.82,0,6.92,3.1,6.92,6.92c0,0.26-0.02,0.53-0.05,0.79c-5.12,44.37-22.5,86.43-50.18,121.48c-1.22,1.55-3.05,2.51-5.02,2.62   L425.3,393.07z M374.73,325.84l49.88,49.82c21.82-29.64,36.09-64.16,41.58-100.56H395.8C391.85,293.13,384.71,310.32,374.73,325.84   "></path>
	<path class="st0z" d="M390.15,219.89c-3.35,0-6.21-2.4-6.8-5.69c-3.63-20.16-11.58-39.29-23.3-56.09c-2.1-3.02-1.46-7.15,1.44-9.41   c0.46-0.36,0.89-0.74,1.29-1.15l57.61-57.57c2.7-2.7,7.08-2.7,9.79,0c0.19,0.19,0.37,0.39,0.54,0.6   c27.69,35.04,45.08,77.09,50.22,121.46c0.44,3.8-2.28,7.23-6.08,7.67c-0.26,0.03-0.51,0.04-0.77,0.05h-81.37   c-0.64,0-1.33,0.05-1.97,0.12L390.15,219.89z M395.8,205.91h70.38c-5.48-36.4-19.76-70.92-41.58-100.57l-49.88,49.82   C384.7,170.69,391.84,187.88,395.8,205.91"></path>
</g>
</svg>