<svg xmlns="http://www.w3.org/2000/svg" xmlns:xlink="http://www.w3.org/1999/xlink" id="Layer_1" x="0px" y="0px" viewBox="0 0 32 32" style="enable-background:new 0 0 32 32;" xml:space="preserve">
<style type="text/css">
	.st0999{clip-path:url(#SVGID_2999_);fill:#3377FF;}
</style>
<g>
	<defs>
		<rect id="SVGID_1999_" width="32" height="32"></rect>
	</defs>
	<clipPath id="SVGID_2999_">
		<use xlink:href="#SVGID_1999_" style="overflow:visible;"></use>
	</clipPath>
	<path class="st0999" d="M31.88,5.62C31.63,4.81,30.9,4.21,30,4.21h-2v2v1.1c0,1.65-1.35,3-3,3c-1.65,0-3-1.35-3-3v-1.1v-2H9.99v2v1.1   c0,1.65-1.35,3-3,3s-3-1.35-3-3v-1.1v-2H2c-0.9,0-1.63,0.6-1.88,1.42H0v0.58v6.23V30c0,1.1,0.9,2,2,2h28c1.1,0,2-0.9,2-2V12.44   V6.21V5.62H31.88z M30,30H2V14h28V30z M6.99,8.31c0.55,0,1-0.45,1-1V1c0-0.55-0.45-1-1-1s-1,0.45-1,1v6.31   C5.99,7.86,6.44,8.31,6.99,8.31 M25,8.31c0.55,0,1-0.45,1-1V1c0-0.55-0.45-1-1-1c-0.55,0-1,0.45-1,1v6.31   C24,7.86,24.45,8.31,25,8.31"></path>
</g>
</svg>