<svg xmlns="http://www.w3.org/2000/svg" xmlns:xlink="http://www.w3.org/1999/xlink" id="Layer_1" x="0px" y="0px" viewBox="0 0 32 23.09" style="enable-background:new 0 0 32 23.09;" xml:space="preserve">
<style type="text/css">
	.st0333{clip-path:url(#SVGID_2333_);fill:#3377FF;}
</style>
<g>
	<defs>
		<rect id="SVGID_1333_" y="0" width="32" height="23.08"></rect>
	</defs>
	<clipPath id="SVGID_2333_">
		<use xlink:href="#SVGID_1333_" style="overflow:visible;"></use>
	</clipPath>
	<path class="st0333" d="M26.17,11.09c1.87-4.29,0.72-7.02-0.22-8.33c-1.42-1.99-4.02-3.09-6.3-2.65C15.69,0.86,14,3.54,14,9.09v4.63   l-2.32-2.32c-0.39-0.39-1.02-0.39-1.41,0c-0.39,0.39-0.39,1.02,0,1.41l4.02,4.02c0.2,0.2,0.47,0.29,0.73,0.29   c0.26,0.01,0.53-0.09,0.73-0.29l4.04-4.04c0.39-0.39,0.39-1.02,0-1.41c-0.39-0.39-1.02-0.39-1.41,0L16,13.76V9.09   c0-5.77,1.99-6.63,4.02-7.02c1.31-0.24,3.2,0.31,4.29,1.85c1.34,1.88,1.09,4.66-0.73,7.84c-0.19,0.34-0.17,0.76,0.05,1.07   c0.22,0.32,0.62,0.48,0.99,0.41c0.24-0.04,0.96-0.15,1.42-0.15c2.18,0,3.95,1.79,3.95,4c0,2.21-1.79,4-4,4L6.15,21.1   C3.82,20.75,2,18.55,2,16.09c0-2.46,1.84-4.57,4.29-4.92l0.86-0.12c0.49-0.07,0.86-0.49,0.86-0.99L7.99,8.99   c0.01-3.58,2.21-6.53,5.26-7c0.54-0.09,0.92-0.6,0.83-1.14C14,0.3,13.5-0.07,12.94,0.01C8.92,0.64,6,4.41,5.99,8.98   c0,0,0.02,0.2,0.02,0.2C2.58,9.68,0,12.64,0,16.09c0,3.49,2.52,6.5,6,7h20c3.31,0,6-2.69,6-6C32,13.81,29.39,11.15,26.17,11.09"></path>
</g>
</svg>