<svg xmlns="http://www.w3.org/2000/svg" xmlns:xlink="http://www.w3.org/1999/xlink" id="Layer_1" x="0px" y="0px" viewBox="0 0 20 20" style="enable-background:new 0 0 20 20;" xml:space="preserve">
<style type="text/css">
	.st0ttt{clip-path:url(#SVGID_2ttt_);fill:#C5BCF7;}
	.st1ttt{clip-path:url(#SVGID_2ttt_);fill:#6E59ED;}
	.st2ttt{clip-path:url(#SVGID_2ttt_);fill:#A89BF4;}
</style>
<g>
	<defs>
		<rect id="SVGID_1ttt_" width="20" height="20"></rect>
	</defs>
	<clipPath id="SVGID_2ttt_">
		<use xlink:href="#SVGID_1ttt_" style="overflow:visible;"></use>
	</clipPath>
	<path class="st0ttt" d="M13,0C9.62,0,6.73,2.42,6.12,5.74c2.91-1.59,6.55-0.52,8.14,2.38c0.98,1.79,0.98,3.97,0,5.76   c3.8-0.7,6.32-4.34,5.62-8.14C19.28,2.41,16.38,0,13,0"></path>
	<path class="st1ttt" d="M5,10c2.76,0,5,2.24,5,5s-2.24,5-5,5s-5-2.24-5-5S2.24,10,5,10"></path>
	<path class="st2ttt" d="M9,5c-3.08,0-5.66,2.34-5.97,5.41c2.54-1.09,5.47,0.08,6.56,2.62c0.54,1.26,0.54,2.69,0,3.95   c3.3-0.33,5.7-3.27,5.38-6.56C14.67,7.34,12.08,5,9,5"></path>
</g>
</svg>