<svg xmlns="http://www.w3.org/2000/svg" xmlns:xlink="http://www.w3.org/1999/xlink" id="Layer_1" x="0px" y="0px" viewBox="0 0 20 20" style="enable-background:new 0 0 20 20;" xml:space="preserve">
<style type="text/css">
	.st0r{clip-path:url(#SVGID_2r_);}
	.st1r{clip-path:url(#SVGID_4r_);fill:#DABEFF;}
	.st2r{opacity:0.8;clip-path:url(#SVGID_4r_);}
	.st3r{clip-path:url(#SVGID_6r_);fill:#E8D8FF;}
	.st4r{clip-path:url(#SVGID_8r_);fill:#E8D8FF;}
	.st5r{clip-path:url(#SVGID_10r_);fill:#E8D8FF;}
</style>
<g>
	<defs>
		<rect id="SVGID_1r_" width="20" height="20"></rect>
	</defs>
	<clipPath id="SVGID_2r_">
		<use xlink:href="#SVGID_1r_" style="overflow:visible;"></use>
	</clipPath>
	<g class="st0r">
		<defs>
			<rect id="SVGID_3r_" width="20" height="20"></rect>
		</defs>
		<clipPath id="SVGID_4r_">
			<use xlink:href="#SVGID_3r_" style="overflow:visible;"></use>
		</clipPath>
		<path class="st1r" d="M1,0h7c0.55,0,1,0.45,1,1v7c0,0.55-0.45,1-1,1H1C0.45,9,0,8.55,0,8V1C0,0.45,0.45,0,1,0"></path>
		<g class="st2r">
			<g>
				<defs>
					<rect id="SVGID_5r_" y="11" width="9" height="9"></rect>
				</defs>
				<clipPath id="SVGID_6r_">
					<use xlink:href="#SVGID_5r_" style="overflow:visible;"></use>
				</clipPath>
				<path class="st3r" d="M1,11h7c0.55,0,1,0.45,1,1v7c0,0.55-0.45,1-1,1H1c-0.55,0-1-0.45-1-1v-7C0,11.45,0.45,11,1,11"></path>
			</g>
		</g>
		<g class="st2r">
			<g>
				<defs>
					<rect id="SVGID_7r_" x="11" width="9" height="9"></rect>
				</defs>
				<clipPath id="SVGID_8r_">
					<use xlink:href="#SVGID_7r_" style="overflow:visible;"></use>
				</clipPath>
				<path class="st4r" d="M12,0h7c0.55,0,1,0.45,1,1v7c0,0.55-0.45,1-1,1h-7c-0.55,0-1-0.45-1-1V1C11,0.45,11.45,0,12,0"></path>
			</g>
		</g>
		<g class="st2r">
			<g>
				<defs>
					<rect id="SVGID_9r_" x="11" y="11" width="9" height="9"></rect>
				</defs>
				<clipPath id="SVGID_10r_">
					<use xlink:href="#SVGID_9r_" style="overflow:visible;"></use>
				</clipPath>
				<path class="st5r" d="M12,11h7c0.55,0,1,0.45,1,1v7c0,0.55-0.45,1-1,1h-7c-0.55,0-1-0.45-1-1v-7C11,11.45,11.45,11,12,11"></path>
			</g>
		</g>
	</g>
</g>
</svg>