<svg xmlns="http://www.w3.org/2000/svg" xmlns:xlink="http://www.w3.org/1999/xlink" id="Layer_1" x="0px" y="0px" viewBox="0 0 31.98 28" style="enable-background:new 0 0 31.98 28;" xml:space="preserve">
<style type="text/css">
	.st0888{clip-path:url(#SVGID_2888_);fill:#3377FF;}
</style>
<g>
	<defs>
		<rect id="SVGID_1888_" width="31.98" height="28"></rect>
	</defs>
	<clipPath id="SVGID_2888_">
		<use xlink:href="#SVGID_1888_" style="overflow:visible;"></use>
	</clipPath>
	<path class="st0888" d="M6.06,26c0,1.1,0.9,2,2,2c1.1,0,2-0.9,2-2s-0.9-2-2-2C6.95,24,6.06,24.9,6.06,26 M24.06,26c0,1.1,0.9,2,2,2   c1.1,0,2-0.9,2-2s-0.9-2-2-2C24.95,24,24.06,24.9,24.06,26 M0,1c0,0.55,0.45,1,1,1h2.08l1.24,5.31L6.06,16   c0,0.07,0.03,0.13,0.04,0.2l-1.02,4.58c-0.07,0.3,0.01,0.61,0.2,0.84C5.47,21.86,5.75,22,6.06,22h22.69c0.55,0,1-0.45,1-1   s-0.45-1-1-1H7.31l0.46-2.06C7.86,17.96,7.95,18,8.06,18h18.23c1.1,0,1.77-0.22,2.3-1.5l3.25-9.96C32.4,4.75,31.16,4,30.06,4h-24   C5.9,4,5.77,4.05,5.62,4.09L4.84,0.77C4.74,0.32,4.34,0,3.87,0H1C0.45,0,0,0.45,0,1 M6.1,6h23.81l-3.19,9.8   c-0.04,0.09-0.07,0.15-0.09,0.19C26.56,15.99,26.45,16,26.29,16H8.06v-0.2l-0.04-0.19L6.1,6z"></path>
</g>
</svg>