<svg xmlns="http://www.w3.org/2000/svg" xmlns:xlink="http://www.w3.org/1999/xlink" id="Layer_1" x="0px" y="0px" viewBox="0 0 22.02 21.89" style="enable-background:new 0 0 22.02 21.89;" xml:space="preserve">
<style type="text/css">
	.st0111{clip-path:url(#SVGID_2111_);fill:#3377FF;}
</style>
<g>
	<defs>
		<rect id="SVGID_1111_" y="0" width="22.02" height="21.89"></rect>
	</defs>
	<clipPath id="SVGID_2111_">
		<use xlink:href="#SVGID_1111_" style="overflow:visible;"></use>
	</clipPath>
	<path class="st0111" d="M7.83,21.57c0.04,0.03,0.06,0.08,0.11,0.11c0.06,0.04,0.13,0.05,0.19,0.08c0.08,0.04,0.15,0.07,0.23,0.09   c0.08,0.02,0.15,0.03,0.23,0.04c0.11,0.01,0.22,0.01,0.34,0c0.05-0.01,0.09-0.02,0.14-0.03c0.14-0.03,0.27-0.09,0.39-0.16   c0.02-0.01,0.04-0.03,0.06-0.04c0.08-0.06,0.17-0.1,0.24-0.17c0.05-0.06,0.07-0.12,0.11-0.19c0,0,0.01,0,0.01-0.01l11.92-19.1   c0.42-0.65,0.24-1.51-0.41-1.94s-1.51-0.24-1.94,0.41L8.44,18.28l-6.09-5.92c-0.57-0.53-1.45-0.49-1.98,0.08   c-0.52,0.57-0.49,1.45,0.08,1.98l7.32,7.13C7.79,21.55,7.81,21.55,7.83,21.57"></path>
</g>
</svg>