<svg xmlns="http://www.w3.org/2000/svg" xmlns:xlink="http://www.w3.org/1999/xlink" id="Layer_1" x="0px" y="0px" viewBox="0 0 22 24" style="enable-background:new 0 0 22 24;" xml:space="preserve">
<style type="text/css">
	.st0222{clip-path:url(#SVGID_2222_);fill:#3377FF;}
</style>
<g>
	<defs>
		<rect id="SVGID_1222_" width="22" height="24"></rect>
	</defs>
	<clipPath id="SVGID_2222_">
		<use xlink:href="#SVGID_1222_" style="overflow:visible;"></use>
	</clipPath>
	<path class="st0222" d="M4,4V1c0-0.55-0.45-1-1-1S2,0.45,2,1v3C0.9,4,0,4.9,0,6v2c0,1.1,0.9,2,2,2v13c0,0.55,0.45,1,1,1s1-0.45,1-1V10   c1.1,0,2-0.9,2-2V6C6,4.9,5.1,4,4,4 M2,6h2v2H2V6z M12,14V1c0-0.55-0.45-1-1-1s-1,0.45-1,1v13c-1.1,0-2,0.9-2,2v2c0,1.1,0.9,2,2,2   v3c0,0.55,0.45,1,1,1s1-0.45,1-1v-3c1.1,0,2-0.9,2-2v-2C14,14.9,13.1,14,12,14 M10,16h2v2h-2V16z M20,8V1c0-0.55-0.45-1-1-1   s-1,0.45-1,1v7c-1.1,0-2,0.9-2,2v2c0,1.1,0.9,2,2,2v9c0,0.55,0.45,1,1,1s1-0.45,1-1v-9c1.1,0,2-0.9,2-2v-2C22,8.9,21.1,8,20,8    M18,10h2v2h-2V10z"></path>
</g>
</svg>