<svg xmlns="http://www.w3.org/2000/svg" xmlns:xlink="http://www.w3.org/1999/xlink" id="Layer_1" x="0px" y="0px" viewBox="0 0 2195.91 2430.88" style="enable-background:new 0 0 2195.91 2430.88;" xml:space="preserve">
<style type="text/css">
	.st0g{clip-path:url(#SVGID_2g_);fill:#C5F7FC;}
</style>
<g>
	<defs>
		<rect id="SVGID_1g_" y="0" width="2195.91" height="2430.88"></rect>
	</defs>
	<clipPath id="SVGID_2g_">
		<use xlink:href="#SVGID_1g_" style="overflow:visible;"></use>
	</clipPath>
	<path class="st0g" d="M2195.9,2126.68c0.9,166.9-133.7,302.8-300.5,303.7c-12.4,0.1-24.9-0.6-37.2-2.1   c-154.8-22.9-268.2-157.6-264.4-314V316.08c-3.7-156.6,110-291.3,264.9-314c165.7-19.4,315.8,99.2,335.2,264.9   c1.4,12.2,2.1,24.4,2,36.7V2126.68z"></path>
	<path class="st0g" d="M301.1,1828.68c166.3,0,301.1,134.8,301.1,301.1c0,166.3-134.8,301.1-301.1,301.1   c-166.3,0-301.1-134.8-301.1-301.1C0,1963.48,134.8,1828.68,301.1,1828.68 M1093.3,916.18c-167.1,9.2-296.7,149.3-292.8,316.6   v808.7c0,219.5,96.6,352.7,238.1,381.1c163.3,33.1,322.4-72.4,355.5-235.7c4.1-20,6.1-40.3,6-60.7v-907.4   c0.3-166.9-134.7-302.4-301.6-302.7C1096.8,916.08,1095,916.08,1093.3,916.18"></path>
</g>
</svg>