<svg xmlns="http://www.w3.org/2000/svg" xmlns:xlink="http://www.w3.org/1999/xlink" id="Layer_1" x="0px" y="0px" viewBox="0 0 22 20.1" style="enable-background:new 0 0 22 20.1;" xml:space="preserve">
<style type="text/css">
	.st0a{clip-path:url(#SVGID_2a_);fill:#84ADFF;}
	.st1a{clip-path:url(#SVGID_2a_);fill:#3377FF;}
</style>
<g>
	<defs>
		<rect id="SVGID_1a_" y="0" width="22" height="20.09"></rect>
	</defs>
	<clipPath id="SVGID_2a_">
		<use xlink:href="#SVGID_1a_" style="overflow:visible;"></use>
	</clipPath>
	<path class="st0a" d="M16.69,20.1c-0.45,0-0.89-0.15-1.24-0.43l-4.03-3.12l-2.7,2.98c-0.37,0.41-1,0.44-1.41,0.07   c-0.14-0.12-0.23-0.28-0.29-0.45L5,12.46L1.37,11.2c-1.06-0.37-1.63-1.53-1.26-2.6c0.19-0.55,0.61-1,1.15-1.22l17.92-7.24   c1.05-0.42,2.24,0.08,2.66,1.12c0.15,0.37,0.19,0.78,0.11,1.17L18.7,18.46C18.5,19.41,17.66,20.09,16.69,20.1"></path>
	<path class="st1a" d="M7.97,19.86c-0.44,0-0.83-0.29-0.96-0.71l-2.17-7.16c-0.14-0.46,0.07-0.95,0.49-1.18l10.57-5.5   C16.4,5.05,17,5.24,17.26,5.73c0.2,0.39,0.13,0.86-0.18,1.17L10,13.99l-1.04,5.07c-0.09,0.45-0.48,0.78-0.93,0.8   C8,19.86,7.99,19.86,7.97,19.86"></path>
</g>
</svg>