<svg xmlns="http://www.w3.org/2000/svg" xmlns:xlink="http://www.w3.org/1999/xlink" id="Layer_1" x="0px" y="0px" viewBox="0 0 29.87 29.87" style="enable-background:new 0 0 29.87 29.87;" xml:space="preserve">
<style type="text/css">
	.st0www{clip-path:url(#SVGID_2www_);fill:#3377FF;}
</style>
<g>
	<defs>
		<rect id="SVGID_1www_" y="0" width="29.87" height="29.87"></rect>
	</defs>
	<clipPath id="SVGID_2www_">
		<use xlink:href="#SVGID_1www_" style="overflow:visible;"></use>
	</clipPath>
	<path class="st0www" d="M14.93,0C11.11,0,7.29,1.46,4.37,4.37c-5.83,5.83-5.83,15.29,0,21.12c2.92,2.92,6.74,4.37,10.56,4.37   s7.64-1.46,10.56-4.37c5.83-5.83,5.83-15.29,0-21.12C22.58,1.46,18.76,0,14.93,0 M24.08,24.08c-2.44,2.44-5.69,3.79-9.15,3.79   c-3.45,0-6.7-1.35-9.15-3.79C3.35,21.64,2,18.39,2,14.93s1.35-6.7,3.79-9.15C8.23,3.34,11.48,2,14.93,2c3.45,0,6.7,1.35,9.15,3.79   s3.79,5.69,3.79,9.15S26.52,21.64,24.08,24.08 M20.87,13.87h-5V6.85c0-0.55-0.45-1-1-1s-1,0.45-1,1v8.01v0v0c0,0.55,0.45,1,1,1h6   c0.55,0,1-0.45,1-1C21.87,14.31,21.42,13.87,20.87,13.87"></path>
</g>
</svg>