<svg xmlns="http://www.w3.org/2000/svg" xmlns:xlink="http://www.w3.org/1999/xlink" id="Layer_1" x="0px" y="0px" viewBox="0 0 32 32" style="enable-background:new 0 0 32 32;" xml:space="preserve">
<style type="text/css">
	.st0555{clip-path:url(#SVGID_2555_);fill:#3377FF;}
</style>
<g>
	<defs>
		<rect id="SVGID_1555_" y="0" width="32" height="32"></rect>
	</defs>
	<clipPath id="SVGID_2555_">
		<use xlink:href="#SVGID_1555_" style="overflow:visible;"></use>
	</clipPath>
	<path class="st0555" d="M27.1,10H18V4.81C18.07,2,17.44,0,15.06,0C12.5,0,12,2.13,12,2.13C11.53,9.66,4,12,4,12v16l2.92,0.12   c7.57,0,3.03,3.88,15.46,3.88C31.82,32,32,23.69,32,18S29.41,10,27.1,10 M22.38,30c-6.32,0-7.65-1.01-8.84-1.89   c-1.49-1.12-2.93-1.98-6.52-1.98H7.01L6,26.08V13.34c2.49-1.16,7.45-4.28,7.98-10.83C14.06,2.35,14.31,2,15.06,2   c0.18,0,0.41,0.02,0.51,0.12c0.08,0.08,0.48,0.6,0.43,2.69V10v2h2h9.1c1.44,0,2.9,2.06,2.9,6C30,25.78,28.79,30,22.38,30 M1,30   c0.55,0,1-0.45,1-1V11.08c0-0.55-0.45-1-1-1s-1,0.45-1,1V29C0,29.55,0.45,30,1,30"></path>
</g>
</svg>