<svg xmlns="http://www.w3.org/2000/svg" xmlns:xlink="http://www.w3.org/1999/xlink" id="Layer_1" x="0px" y="0px" viewBox="0 0 21.94 22.03" style="enable-background:new 0 0 21.94 22.03;" xml:space="preserve">
<style type="text/css">
	.st0qqq{clip-path:url(#SVGID_2qqq_);fill:#6E59ED;}
	.st1qqq{clip-path:url(#SVGID_2qqq_);fill:#A89BF4;}
</style>
<g>
	<defs>
		<rect id="SVGID_1qqq_" y="0" width="21.94" height="22.03"></rect>
	</defs>
	<clipPath id="SVGID_2qqq_">
		<use xlink:href="#SVGID_1qqq_" style="overflow:visible;"></use>
	</clipPath>
	<path class="st0qqq" d="M16.7,13.64l-2.43,2.23c-1.25,1.09-2.71,1.9-4.3,2.37l0.64,3c0.12,0.54,0.65,0.88,1.19,0.77   c0.1-0.02,0.19-0.06,0.28-0.11L16,19.7c1.13-0.69,1.68-2.02,1.37-3.3L16.7,13.64z M6.23,7.79l2.09-2.48l-2.6-0.63   C4.41,4.22,2.96,4.8,2.33,6.04l-2.2,3.9c-0.27,0.48-0.1,1.09,0.38,1.36c0.09,0.05,0.18,0.09,0.28,0.11l3.07,0.66   C4.37,10.5,5.18,9.05,6.23,7.79 M15.7,7.83c0.83,0,1.5-0.67,1.5-1.5c0-0.83-0.67-1.5-1.5-1.5c-0.83,0-1.5,0.67-1.5,1.5   C14.2,7.16,14.87,7.83,15.7,7.83"></path>
	<path class="st1qqq" d="M21.57,1.08c-0.09-0.35-0.36-0.62-0.71-0.71c-4.18-1.09-8.62,0.32-11.42,3.62l-3.2,3.8   c-1.6,1.91-2.61,4.24-2.92,6.71c-0.04,0.31,0.07,0.62,0.28,0.84l3.1,3.1c0.19,0.19,0.44,0.29,0.71,0.29c0.03,0,0.06,0,0.09,0   c2.51-0.21,4.89-1.21,6.79-2.86l3.66-3.37C21.26,9.71,22.67,5.26,21.57,1.08 M15.7,7.83c-0.83,0-1.5-0.67-1.5-1.5   c0-0.83,0.67-1.5,1.5-1.5c0.83,0,1.5,0.67,1.5,1.5C17.2,7.16,16.53,7.83,15.7,7.83"></path>
</g>
</svg>