<svg xmlns="http://www.w3.org/2000/svg" xmlns:xlink="http://www.w3.org/1999/xlink" id="Layer_1" x="0px" y="0px" viewBox="0 0 32 28" style="enable-background:new 0 0 32 28;" xml:space="preserve">
<style type="text/css">
	.st0777{clip-path:url(#SVGID_2777_);fill:#3377FF;}
</style>
<g>
	<defs>
		<rect id="SVGID_1777_" width="32" height="28"></rect>
	</defs>
	<clipPath id="SVGID_2777_">
		<use xlink:href="#SVGID_1777_" style="overflow:visible;"></use>
	</clipPath>
	<path class="st0777" d="M30,0H2C0.9,0,0,0.9,0,2v18c0,1.1,0.9,2,2,2h10c0,1.45-0.06,3.32-0.61,4h-0.4C10.44,26,10,26.45,10,27   s0.44,1,0.98,1h10.03c0.55,0,0.99-0.45,0.99-1s-0.44-1-0.98-1h-0.4c-0.55-0.68-0.61-2.55-0.61-4h10c1.1,0,2-0.9,2-2V2   C32,0.9,31.1,0,30,0 M14,22L14,22C14,22,14,22,14,22 M18,22L18,22L18,22L18,22z M30,18H2V2h28V18z"></path>
</g>
</svg>