<svg xmlns="http://www.w3.org/2000/svg" xmlns:xlink="http://www.w3.org/1999/xlink" id="Layer_1" x="0px" y="0px" viewBox="0 0 32 32" style="enable-background:new 0 0 32 32;" xml:space="preserve">
<style type="text/css">
	.st0666{clip-path:url(#SVGID_2666_);fill:#3377FF;}
</style>
<g>
	<defs>
		<rect id="SVGID_1666_" width="32" height="32"></rect>
	</defs>
	<clipPath id="SVGID_2666_">
		<use xlink:href="#SVGID_1666_" style="overflow:visible;"></use>
	</clipPath>
	<path class="st0666" d="M0.98,17.2l3.47-0.13c0.41,0.53,0.88,1.02,1.41,1.45l-0.23,3.47c0.38,0.22,0.77,0.42,1.18,0.59   c0.41,0.18,0.83,0.32,1.24,0.45l2.37-2.55c0.68,0.09,1.35,0.1,2.02,0.03l2.29,2.61c0.85-0.23,1.68-0.56,2.46-0.98l-0.13-3.47   c0.53-0.41,1.01-0.88,1.45-1.41l3.47,0.23c0.22-0.38,0.42-0.77,0.59-1.18c0.18-0.41,0.32-0.83,0.45-1.24l-2.55-2.37   c0.09-0.68,0.1-1.35,0.03-2.02l2.61-2.29c-0.23-0.85-0.56-1.68-0.98-2.46l-3.47,0.13c-0.41-0.53-0.88-1.01-1.41-1.45l0.23-3.47   c-0.38-0.22-0.77-0.42-1.18-0.59c-0.41-0.18-0.83-0.32-1.24-0.45L12.7,2.64c-0.68-0.09-1.35-0.1-2.02-0.03L8.39,0   C7.54,0.23,6.71,0.56,5.93,0.98l0.13,3.47C5.53,4.86,5.05,5.33,4.61,5.86L1.14,5.63C0.92,6.01,0.72,6.4,0.55,6.82   C0.37,7.23,0.22,7.64,0.09,8.06l2.55,2.37c-0.09,0.68-0.1,1.35-0.03,2.02L0,14.74C0.23,15.59,0.56,16.42,0.98,17.2 M13.94,6.06   c3.04,1.31,4.45,4.84,3.13,7.89c-1.31,3.04-4.84,4.45-7.89,3.13s-4.45-4.84-3.13-7.89S10.9,4.74,13.94,6.06 M8.57,11.57   c0,1.66,1.34,3,3,3s3-1.34,3-3s-1.34-3-3-3S8.57,9.91,8.57,11.57 M30.04,23.55l-0.83-0.29l0.38-0.8l0.87-1.83   c-0.32-0.4-0.69-0.77-1.09-1.09l-1.83,0.87l-0.8,0.38l-0.29-0.83l-0.68-1.91C25.52,18.02,25.26,18,25,18   c-0.26,0-0.52,0.02-0.77,0.04l-0.68,1.91l-0.29,0.83l-0.8-0.38l-1.83-0.87c-0.4,0.32-0.77,0.69-1.09,1.09l0.87,1.83l0.38,0.8   l-0.83,0.29l-1.91,0.68C18.02,24.48,18,24.74,18,25s0.02,0.52,0.04,0.77l1.91,0.68l0.83,0.29l-0.38,0.8l-0.87,1.83   c0.32,0.4,0.69,0.77,1.09,1.09l1.83-0.87l0.8-0.38l0.29,0.83l0.68,1.91C24.48,31.98,24.74,32,25,32c0.26,0,0.52-0.02,0.77-0.04   l0.68-1.91l0.29-0.83l0.8,0.38l1.83,0.87c0.4-0.32,0.77-0.69,1.09-1.09l-0.87-1.83l-0.38-0.8l0.83-0.29l1.91-0.68   C31.98,25.52,32,25.26,32,25s-0.02-0.52-0.04-0.77L30.04,23.55z M25,26.5c-0.83,0-1.5-0.67-1.5-1.5s0.67-1.5,1.5-1.5   c0.83,0,1.5,0.67,1.5,1.5S25.83,26.5,25,26.5"></path>
</g>
</svg>