<svg xmlns="http://www.w3.org/2000/svg" xmlns:xlink="http://www.w3.org/1999/xlink" id="Layer_1" x="0px" y="0px" viewBox="0 0 20 20.39" style="enable-background:new 0 0 20 20.39;" xml:space="preserve">
<style type="text/css">
	.st0111{clip-path:url(#SVGID_2222_);fill:#ADC8FF;}
	.st1111{clip-path:url(#SVGID_2222_);fill:#84ADFF;}
	.st2111{clip-path:url(#SVGID_2222_);fill:#3377FF;}
</style>
<g>
	<defs>
		<rect id="SVGID_1111_" y="0" width="20" height="20.39"></rect>
	</defs>
	<clipPath id="SVGID_2222_">
		<use xlink:href="#SVGID_1111_" style="overflow:visible;"></use>
	</clipPath>
	<path class="st0111" d="M10,12.39c-0.18,0-0.35-0.05-0.5-0.13l-9-5.2C0.02,6.78-0.14,6.17,0.13,5.69C0.22,5.54,0.35,5.41,0.5,5.33   l9-5.19c0.31-0.18,0.69-0.18,1,0l9,5.19c0.48,0.28,0.64,0.89,0.37,1.37c-0.09,0.15-0.21,0.28-0.37,0.37l-9,5.2   C10.35,12.34,10.18,12.39,10,12.39"></path>
	<path class="st1111" d="M19.5,9.33l-1.96-1.13l-7.04,4.06c-0.31,0.18-0.69,0.18-1,0L2.46,8.19L0.5,9.33   c-0.48,0.28-0.64,0.89-0.37,1.37c0.09,0.15,0.21,0.28,0.37,0.36l9,5.2c0.31,0.18,0.69,0.18,1,0l9-5.2   c0.48-0.28,0.64-0.89,0.37-1.37C19.78,9.54,19.65,9.41,19.5,9.33"></path>
	<path class="st2111" d="M19.5,13.33l-1.96-1.13l-7.04,4.06c-0.31,0.18-0.69,0.18-1,0l-7.04-4.06L0.5,13.33   c-0.48,0.28-0.64,0.89-0.37,1.37c0.09,0.15,0.21,0.28,0.37,0.37l9,5.2c0.31,0.18,0.69,0.18,1,0l9-5.2   c0.48-0.28,0.64-0.89,0.37-1.37C19.78,13.54,19.65,13.41,19.5,13.33"></path>
</g>
</svg>