<svg xmlns="http://www.w3.org/2000/svg" xmlns:xlink="http://www.w3.org/1999/xlink" id="Layer_1" x="0px" y="0px" viewBox="0 0 20 20" style="enable-background:new 0 0 20 20;" xml:space="preserve">
<style type="text/css">
	.st011{clip-path:url(#SVGID_22_);fill:#84ADFF;}
	.st111{clip-path:url(#SVGID_22_);fill:#3377FF;}
</style>
<g>
	<defs>
		<rect id="SVGID_11_" width="20" height="20"></rect>
	</defs>
	<clipPath id="SVGID_22_">
		<use xlink:href="#SVGID_11_" style="overflow:visible;"></use>
	</clipPath>
	<path class="st011" d="M17,0H3C1.34,0,0,1.34,0,3v10c0,1.66,1.34,3,3,3h11.59l3.71,3.71c0.39,0.39,1.02,0.39,1.41,0   C19.89,19.52,20,19.27,20,19V3C20,1.34,18.66,0,17,0 M6,9C5.45,9,5,8.55,5,8s0.45-1,1-1s1,0.45,1,1S6.55,9,6,9 M10,9   C9.45,9,9,8.55,9,8s0.45-1,1-1s1,0.45,1,1S10.55,9,10,9 M14,9c-0.55,0-1-0.45-1-1s0.45-1,1-1c0.55,0,1,0.45,1,1S14.55,9,14,9"></path>
	<path class="st111" d="M6,7c0.55,0,1,0.45,1,1c0,0.55-0.45,1-1,1S5,8.55,5,8C5,7.45,5.45,7,6,7"></path>
	<path class="st111" d="M10,7c0.55,0,1,0.45,1,1c0,0.55-0.45,1-1,1C9.45,9,9,8.55,9,8C9,7.45,9.45,7,10,7"></path>
	<path class="st111" d="M14,7c0.55,0,1,0.45,1,1c0,0.55-0.45,1-1,1c-0.55,0-1-0.45-1-1C13,7.45,13.45,7,14,7"></path>
</g>
</svg>