<svg xmlns="http://www.w3.org/2000/svg" xmlns:xlink="http://www.w3.org/1999/xlink" id="Layer_1" x="0px" y="0px" viewBox="0 0 484.32 484.32" style="enable-background:new 0 0 484.32 484.32;" xml:space="preserve">
<style type="text/css">
	.st0x{clip-path:url(#SVGID_2x_);fill:#3377FF;}
</style>
<g>
	<defs>
		<rect id="SVGID_1x_" width="484.32" height="484.32"></rect>
	</defs>
	<clipPath id="SVGID_2x_">
		<use xlink:href="#SVGID_1x_" style="overflow:visible;"></use>
	</clipPath>
	<path class="st0x" d="M269.84,484.32h-20.55c-3.82,0-6.92-3.1-6.92-6.92c0-3.82,3.1-6.92,6.92-6.92h20.55c3.82,0,6.92,3.1,6.92,6.92   C276.76,481.23,273.66,484.32,269.84,484.32"></path>
	<path class="st0x" d="M463.57,484.32h-145.3c-3.82,0-6.92-3.1-6.92-6.92c0-3.82,3.1-6.92,6.92-6.92h145.3c3.82,0,6.92-3.1,6.92-6.92   V20.76c0-3.82-3.1-6.92-6.92-6.92H20.76c-3.82,0-6.92,3.1-6.92,6.92v442.81c0,3.82,3.1,6.92,6.92,6.92h111.6   c3.82,0,6.92,3.1,6.92,6.92c0,3.82-3.1,6.92-6.92,6.92H20.76C9.29,484.32,0,475.03,0,463.57V20.76C0,9.29,9.29,0,20.76,0h442.81   c11.46,0,20.76,9.29,20.76,20.76v442.81C484.32,475.03,475.03,484.32,463.57,484.32"></path>
	<path class="st0x" d="M200.86,484.32h-20.06c-3.82,0-6.92-3.1-6.92-6.92c0-3.82,3.1-6.92,6.92-6.92h20.06c3.82,0,6.92,3.1,6.92,6.92   C207.77,481.23,204.68,484.32,200.86,484.32"></path>
	<path class="st0x" d="M477.41,110.7H6.92c-3.82,0-6.92-3.1-6.92-6.92c0-3.82,3.1-6.92,6.92-6.92h470.49c3.82,0,6.92,3.1,6.92,6.92   C484.32,107.6,481.23,110.7,477.41,110.7"></path>
	<path class="st0x" d="M62.92,78.27c-12.66,0-22.92-10.26-22.92-22.92c0-12.66,10.26-22.92,22.92-22.92S85.84,42.7,85.84,55.35   C85.82,68,75.57,78.25,62.92,78.27 M62.92,46.27c-5.01,0-9.08,4.06-9.08,9.08c0,5.01,4.07,9.08,9.08,9.08   c5.01,0,9.08-4.06,9.08-9.08C71.99,50.34,67.93,46.28,62.92,46.27"></path>
	<path class="st0x" d="M131.46,78.27c-12.66,0-22.92-10.26-22.92-22.92c0-12.66,10.26-22.92,22.92-22.92   c12.66,0,22.92,10.26,22.92,22.92C154.36,68,144.11,78.26,131.46,78.27 M131.46,46.27c-5.01,0-9.08,4.06-9.08,9.08   c0,5.01,4.06,9.08,9.08,9.08c5.01,0,9.08-4.06,9.08-9.08C140.53,50.34,136.47,46.28,131.46,46.27"></path>
	<path class="st0x" d="M200,78.27c-12.66,0-22.91-10.27-22.91-22.92s10.27-22.91,22.92-22.91c12.65,0,22.91,10.26,22.91,22.92   C222.91,68,212.65,78.26,200,78.27 M200,46.27c-5.01,0-9.07,4.07-9.07,9.08c0,5.01,4.07,9.08,9.08,9.07c5.01,0,9.07-4.07,9.07-9.08   C209.08,50.34,205.01,46.27,200,46.27"></path>
	<path class="st0x" d="M428.97,62.27H256c-3.82,0-6.92-3.1-6.92-6.92c0-3.82,3.1-6.92,6.92-6.92h172.97c3.82,0,6.92,3.1,6.92,6.92   C435.89,59.17,432.79,62.27,428.97,62.27"></path>
	<path class="st0x" d="M298.33,344.68c-3.82,0-6.92-3.1-6.92-6.92c0-1.83,0.73-3.59,2.03-4.89l42.28-42.27l-42.28-42.27   c-2.65-2.75-2.58-7.13,0.17-9.78c2.68-2.59,6.93-2.59,9.62,0l47.17,47.17c2.7,2.7,2.7,7.08,0,9.78l-47.17,47.17   C301.93,343.95,300.17,344.68,298.33,344.68"></path>
	<path class="st0x" d="M185.99,344.68c-1.84,0.01-3.6-0.73-4.89-2.03l-47.17-47.17c-2.7-2.7-2.7-7.08,0-9.78l47.17-47.17   c2.75-2.65,7.13-2.58,9.78,0.17c2.59,2.68,2.59,6.93,0,9.61l-42.28,42.27l42.28,42.27c2.7,2.7,2.7,7.08,0,9.79   C189.59,343.95,187.83,344.68,185.99,344.68"></path>
	<path class="st0x" d="M220.18,387.46c-0.56,0-1.11-0.07-1.65-0.2c-3.71-0.91-5.98-4.65-5.08-8.36l43.97-179.89   c0.92-3.71,4.67-5.97,8.38-5.05c3.68,0.92,5.94,4.63,5.06,8.33L226.9,382.18C226.14,385.28,223.37,387.46,220.18,387.46"></path>
</g>
</svg>